<svg version="1" xmlns="http://www.w3.org/2000/svg" width="682.667" height="682.667" viewBox="0 0 512.000000 512.000000"><path d="M86.4 46.6c-2.3.8-5.8 3.1-7.7 5-11.8 11.8-9 29.8 5.8 37.7 3.8 2.1 5.5 2.2 33 2.4 16 .1 30.9.5 33.1.8 6 .9 12.7 5.5 16.1 11.2 2.4 4.1 2.8 5.9 2.8 11.9-.1 5.1-.6 7.9-1.9 10-3.1 4.8-6.9 8.5-11.1 10.7-3.7 1.9-5.8 2.1-30 2.3-14.3.1-27 .5-28.2.7-6.4 1.5-14.3 8.8-16.3 15-2.8 9-.2 18.9 6.6 24.9 6.8 6.1 6.7 6 54.9 6.2 41.8.2 44.2.3 48.5 2.2 8.6 3.9 14.2 12.9 13.9 22-.4 10-7.2 18.8-16.5 21.4-3.5 1-22.2 1.3-79.2 1.4-81.6.2-77.7-.1-84.9 6-10 8.4-9.9 25.6.1 34.4 7.2 6.3 6.6 6.2 53.6 6.2 46.3 0 48.5.2 55.4 5.5 1.9 1.5 4.7 5.1 6.2 8.1 5.3 10.8 1.4 23.3-9.1 29.8-4.7 2.9-5.5 3.1-18 3.4-17.9.4-23.6 2.7-29.2 11.5-5.3 8.4-4 20.6 3.1 27.9 5.1 5.2 10.6 7.5 18.6 7.7 3.1.1 3.8.7 6.5 5.3 8.7 14.8 27.1 27.6 48.1 33.5l9.9 2.8 61 .3 61 .3 7.1-32.3c4-17.8 7.1-32.5 6.9-32.8-.2-.3-19.9-.5-43.9-.4-43.5 0-43.6 0-43.2-2 .2-1.2.9-4.1 1.5-6.6.5-2.5 1.2-5.6 1.5-7 .7-4.1 10.6-47.9 11.1-49.2.2-.7.6-2.7.9-4.3.3-2.5 2.6-12.8 5.2-24 .3-1.1.7-3.1 1-4.5.3-1.4 1.2-5.4 2-9 .9-3.6 1.7-7.5 2-8.7.2-1.1 3.3-15.1 6.9-31 3.6-15.8 7.3-32 8.1-35.8.9-3.9 1.7-7.7 1.9-8.5 3.2-14.1 6.7-30 7.2-32 .2-1.4.6-3 .7-3.5.1-.6.8-3.6 1.5-6.8.7-3.1 1.8-5.8 2.4-5.8 1.5-.2 121.7-.4 121.7-.3 0 .1-1.2 5.3-2.6 11.5-1.4 6.3-2.8 12.5-3 13.9-.3 1.4-1.4 6.3-2.5 11-3 13.2-3.1 13.4-3.5 16-.3 1.4-1.4 6.3-2.5 10.9-1.1 4.6-1.7 8.6-1.4 8.9.7.7 118.4.9 119.5.2.6-.4 2.9-9.4 5.5-21.5.2-1.1 1.8-8.3 3.6-16 2.7-11.8 3.2-16.1 3.3-27 0-11.7-.3-13.8-2.8-21-2.7-7.8-8-17.5-12.1-22.4-9.7-11.5-24.9-21.3-39.7-25.6-5.8-1.6-7.5-2-16.3-3.5-2.7-.5-82.6-.9-177.5-.9-149 0-173.1.3-176.6 1.5z"/><path d="M16.9 138.4c-14.7 5.2-21.2 22.8-13.4 36.1 2.9 5 8.7 9.8 14.2 11.6 4.5 1.4 14.9.7 18.9-1.4 12.7-6.6 17.7-22.3 10.9-34.5-5.9-10.8-19.2-15.9-30.6-11.8zM322.6 218.7c-.2 1-1 4.5-1.7 7.8s-1.4 6.4-1.5 7c-.1.5-2.3 10.2-4.9 21.5-4.2 18.3-5.1 22.4-5.8 26.4-.1.8 6.7 1.1 23.6 1.1 26.3 0 24.5-.6 22.7 7-.5 2.2-1.1 5.1-1.3 6.5-.3 1.4-1.4 6.3-2.6 11-1.1 4.7-2.2 9.6-2.5 11-.2 1.4-1.4 6.8-2.6 12-1.2 5.2-2.3 10.3-2.5 11.4-.2 1-1.8 7.7-3.4 15-1.7 7.2-3.2 14.2-3.5 15.6-.2 1.4-3.9 17.8-8.1 36.5-4.3 18.7-8.1 35.8-8.6 38-.4 2.2-1.7 7.9-2.8 12.7l-1.9 8.8h120.6l.5-2.3c1-3.9 11.9-52.1 12.3-54.4.4-2.2 2.9-13.4 11.8-52.8 2.5-11 4.7-21.1 5-22.5.2-1.4 1.3-6.3 2.5-11 1.1-4.7 2.2-9.7 2.4-11 .3-1.4 4.2-18.9 8.7-39 4.5-20.1 8.4-37.2 8.5-38 1.6-7.4 3.6-15.9 4.1-17.8l.6-2.2h-84.5c-79.7 0-84.6.1-85.1 1.7z"/></svg>